HIERARCHY
ROOT Hips
{
 OFFSET 0.000000 0.000000 0.000000
 CHANNELS 6 Xposition Yposition Zposition Yrotation Xrotation Zrotation
 JOINT Chest
 {
  OFFSET 0.000000 10.746160 -1.194018
  CHANNELS 3 Yrotation Xrotation Zrotation
  JOINT Chest2
  {
   OFFSET 0.000000 12.000952 0.000000
   CHANNELS 3 Yrotation Xrotation Zrotation
   JOINT Chest3
   {
    OFFSET 0.000000 10.955889 0.007153
    CHANNELS 3 Yrotation Xrotation Zrotation
    JOINT Chest4
    {
     OFFSET 0.000000 10.943662 0.007160
     CHANNELS 3 Yrotation Xrotation Zrotation
     JOINT Neck
     {
      OFFSET 0.000000 15.318994 0.000000
      CHANNELS 3 Yrotation Xrotation Zrotation
      JOINT Head
      {
       OFFSET 0.000000 10.186769 -0.015382
       CHANNELS 3 Yrotation Xrotation Zrotation
       End Site
       {
        OFFSET 0.000000 18.952433 -0.002069
       }
      }
     }
     JOINT RightCollar
     {
      OFFSET -3.317303 8.582813 0.000000
      CHANNELS 3 Yrotation Xrotation Zrotation
      JOINT RightShoulder
      {
       OFFSET -15.362413 0.000000 0.000000
       CHANNELS 3 Yrotation Xrotation Zrotation
       JOINT RightElbow
       {
        OFFSET -32.793178 0.000000 0.000000
        CHANNELS 3 Yrotation Xrotation Zrotation
        JOINT RightWrist
        {
         OFFSET -26.822736 0.000000 0.000000
         CHANNELS 3 Yrotation Xrotation Zrotation
         JOINT Prop1
         {
          OFFSET -9.870317 -1.096702 2.193404
          CHANNELS 3 Yrotation Xrotation Zrotation
          End Site
          {
           OFFSET 0.000000 0.000000 62.920279
          }
         }
         End Site
         {
          OFFSET -20.069644 0.000000 0.000000
         }
        }
       }
      }
     }
     JOINT LeftCollar
     {
      OFFSET 3.317303 8.582813 0.000000
      CHANNELS 3 Yrotation Xrotation Zrotation
      JOINT LeftShoulder
      {
       OFFSET 15.362413 0.000000 0.000000
       CHANNELS 3 Yrotation Xrotation Zrotation
       JOINT LeftElbow
       {
        OFFSET 32.793178 0.000000 0.000000
        CHANNELS 3 Yrotation Xrotation Zrotation
        JOINT LeftWrist
        {
         OFFSET 26.822736 0.000000 0.000000
         CHANNELS 3 Yrotation Xrotation Zrotation
         End Site
         {
          OFFSET 20.069644 0.000000 0.000000
         }
        }
       }
      }
     }
    }
   }
  }
 }
 JOINT RightHip
 {
  OFFSET -8.806587 -0.016299 0.001811
  CHANNELS 3 Yrotation Xrotation Zrotation
  JOINT RightKnee
  {
   OFFSET 0.000000 -45.769260 0.001691
   CHANNELS 3 Yrotation Xrotation Zrotation
   JOINT RightAnkle
   {
    OFFSET 0.000000 -44.761142 0.002851
    CHANNELS 3 Yrotation Xrotation Zrotation
    JOINT RightToe
    {
     OFFSET 0.000000 -7.166789 16.168133
     CHANNELS 3 Yrotation Xrotation Zrotation
     End Site
     {
      OFFSET 0.000000 -1.646291 7.024173
     }
    }
   }
  }
 }
 JOINT LeftHip
 {
  OFFSET 8.806587 -0.018715 0.002079
  CHANNELS 3 Yrotation Xrotation Zrotation
  JOINT LeftKnee
  {
   OFFSET 0.000000 -45.769260 0.001691
   CHANNELS 3 Yrotation Xrotation Zrotation
   JOINT LeftAnkle
   {
    OFFSET 0.000000 -44.761142 0.002851
    CHANNELS 3 Yrotation Xrotation Zrotation
    JOINT LeftToe
    {
     OFFSET 0.000000 -7.166789 16.168133
     CHANNELS 3 Yrotation Xrotation Zrotation
     End Site
     {
      OFFSET 0.000000 -1.646291 7.024173
     }
    }
   }
  }
 }
}
MOTION
Frames: 9
Frame Time: 0.016667
-17.085825 98.705337 0.544806 -20.969015 2.588664 2.384715 3.785252 2.000960 -2.153215 1.790501 -4.953771 -0.976675 1.784099 0.863831 -0.794923 1.277969 6.481924 -0.602401 0.177983 15.707091 0.332272 0.210238 -6.858903 0.554373 1.328793 -3.194495 -0.131228 -17.433988 -36.448062 62.481907 56.049081 -42.064061 58.800764 -14.803682 2.937183 -21.785407 -88.249993 -3.173046 -0.771579 3.742582 -0.556304 -0.541815 14.807302 -38.547410 -56.305599 -59.872650 -44.990388 -48.034069 19.668193 -3.376602 19.886580 -10.123615 -3.459158 0.944955 -0.210368 12.835891 -0.881932 -8.410293 -12.701769 -1.279094 -0.000000 0.000000 -0.000000 -0.490487 -23.735119 2.166302 1.971943 30.110508 0.425886 3.389187 -4.434669 -7.798693 0.003279 0.132364 0.000983
-17.316164 98.694622 1.010780 -21.139404 2.551813 2.426821 3.827782 1.724646 -2.179048 1.809258 -5.076969 -0.986346 1.802393 0.740575 -0.802695 1.290994 6.389428 -0.607828 0.238262 15.857795 0.321677 0.326858 -6.579202 0.512566 1.295402 -3.362889 -0.133001 -16.802749 -37.386479 62.482432 55.311695 -41.794588 58.620234 -14.948847 2.888832 -21.845032 -89.012703 -3.333303 -0.318532 3.622872 -0.886258 -0.464321 14.073813 -39.156746 -55.746915 -58.892666 -44.993508 -48.247011 19.624386 -3.563644 20.265893 -10.132761 -2.824058 0.852982 -0.275069 12.262772 -0.903365 -8.248657 -12.767781 -1.256548 0.000000 0.000000 0.000000 -0.697782 -23.198657 2.147264 1.962868 26.320873 0.464904 3.145644 -3.861415 -8.027300 0.000000 -0.000000 0.000000
-17.539054 98.666575 1.508449 -21.406633 2.538009 2.438804 3.873263 1.437047 -2.186362 1.828328 -5.205063 -0.987630 1.820975 0.612418 -0.802051 1.304864 6.293286 -0.606880 0.294191 16.034062 0.293246 0.441620 -6.251943 0.439476 1.271295 -3.491881 -0.161409 -15.854993 -38.169165 62.547148 55.113701 -41.507187 57.902125 -15.117453 2.841581 -21.962449 -89.741493 -3.434256 0.266713 3.579739 -1.191210 -0.380156 13.244979 -39.621739 -55.197621 -58.391876 -44.766252 -47.849645 19.648428 -3.692383 20.462097 -10.080361 -2.272094 0.762148 -0.357788 11.839414 -0.897200 -8.029349 -12.904422 -1.258208 0.000000 0.000000 0.000000 -1.392419 -22.555290 2.337314 2.491380 22.471935 0.643454 2.855596 -2.931078 -8.288615 -0.000000 0.000000 -0.000000
-17.759446 98.620434 2.035871 -21.752543 2.533722 2.409032 3.924368 1.148349 -2.174305 1.848948 -5.333522 -0.980212 1.841092 0.483892 -0.792548 1.320561 6.196901 -0.599239 0.350063 16.221173 0.259930 0.557608 -5.904415 0.357775 1.246561 -3.594143 -0.199299 -14.745591 -38.897567 62.654539 55.092927 -41.184335 56.977268 -15.287177 2.807212 -22.114120 -90.402571 -3.496295 0.903095 3.569117 -1.470911 -0.294647 12.409631 -40.007247 -54.663068 -58.084761 -44.412254 -47.189116 19.694942 -3.796521 20.554985 -9.979921 -1.755690 0.691632 -0.445747 11.504622 -0.878191 -7.776077 -13.089255 -1.270592 -0.000000 0.000000 0.000000 -2.346712 -21.808445 2.661949 3.291247 18.552067 0.908581 2.576074 -1.800680 -8.575652 0.000000 -0.000000 0.000000
-17.984964 98.552066 2.592888 -22.160195 2.485380 2.310373 4.002030 0.889298 -2.141134 1.880529 -5.448758 -0.963566 1.872149 0.368556 -0.772695 1.345256 6.110436 -0.583839 0.399123 16.397849 0.246235 0.653574 -5.576221 0.315342 1.194696 -3.705138 -0.210046 -13.728159 -39.722450 62.739670 54.724430 -40.786415 56.311507 -15.395766 2.774345 -22.285411 -90.977639 -3.460928 1.464454 3.500881 -1.732188 -0.213582 11.729954 -40.427515 -54.194373 -57.599675 -44.083381 -46.775425 19.706129 -3.907876 20.684305 -9.862079 -1.186397 0.680964 -0.543772 11.200935 -0.889780 -7.482040 -13.292433 -1.265902 0.000000 0.000000 -0.000000 -3.180609 -21.085346 3.033659 3.997705 15.077514 1.169976 2.418622 -0.942157 -8.827674 0.000000 0.000000 0.000000
-18.224557 98.455084 3.178637 -22.659570 2.357029 2.112404 4.124114 0.677559 -2.081683 1.930895 -5.542941 -0.935527 1.921957 0.274207 -0.739543 1.385052 6.039742 -0.558488 0.440772 16.556471 0.272588 0.721460 -5.281685 0.350042 1.092451 -3.854195 -0.164222 -12.913529 -40.764615 62.749762 53.664258 -40.284120 56.205582 -15.398893 2.741266 -22.512807 -91.458081 -3.258671 1.900335 3.312403 -1.982090 -0.137046 11.354393 -40.934805 -53.807640 -56.726782 -43.893193 -46.926334 19.640738 -4.048895 20.949363 -9.689390 -0.518967 0.771835 -0.691855 10.917335 -0.963979 -7.122863 -13.504321 -1.244965 0.000000 -0.000000 -0.000000 -3.806951 -20.398819 3.478941 4.546780 12.205338 1.416079 2.468115 -0.598329 -8.993465 0.000000 0.000000 -0.000000
-18.469276 98.335875 3.793981 -23.219812 2.182200 1.847253 4.271579 0.495322 -2.000876 1.991751 -5.623911 -0.898115 1.982241 0.193026 -0.695960 1.433525 5.978955 -0.525321 0.475208 16.704925 0.318194 0.769199 -5.006120 0.423031 0.961453 -4.011051 -0.091555 -12.184813 -41.903221 62.732578 52.271389 -39.714464 56.336940 -15.340877 2.709795 -22.762046 -91.849752 -2.959997 2.260462 3.066453 -2.212810 -0.066424 11.130988 -41.483216 -53.477530 -55.687799 -43.735438 -47.306255 19.537859 -4.194402 21.252238 -9.494924 0.201929 0.920932 -0.850086 10.663779 -1.067940 -6.723074 -13.735050 -1.207667 0.000000 0.000000 -0.000000 -4.312155 -19.732703 3.974916 5.014440 9.779721 1.657270 2.633276 -0.522003 -9.089352 0.000000 0.000000 0.000000
-18.699906 98.209480 4.441352 -23.733087 2.012660 1.581095 4.410267 0.320139 -1.912998 2.048462 -5.701596 -0.857475 2.038395 0.115137 -0.649571 1.479131 5.920658 -0.490044 0.497078 16.845126 0.346085 0.799917 -4.745828 0.467587 0.843070 -4.122190 -0.044641 -11.453169 -42.926415 62.770162 51.069348 -39.155995 56.239327 -15.290692 2.672399 -22.912941 -92.156034 -2.715872 2.570354 2.861424 -2.409555 -0.010297 10.770223 -42.039241 -53.191664 -54.774296 -43.443039 -47.431673 19.462753 -4.306438 21.437399 -9.416375 0.930372 1.038340 -0.903770 10.414530 -1.148723 -6.349434 -13.984265 -1.124305 0.000000 0.000000 0.000000 -4.590756 -19.183611 4.382013 5.262387 7.847077 1.838639 2.761752 -0.449026 -9.148349 0.000000 0.000000 0.000000
-18.912374 98.082527 5.125608 -24.134537 1.870516 1.340217 4.518804 0.139009 -1.823447 2.091717 -5.781736 -0.815904 2.081137 0.034838 -0.603616 1.514654 5.860572 -0.455076 0.497603 16.982298 0.337993 0.803686 -4.491041 0.452953 0.753141 -4.136759 -0.057541 -10.712911 -43.774414 62.950192 50.223011 -38.613575 55.726834 -15.275563 2.612683 -22.850335 -92.339244 -2.639755 2.806858 2.752489 -2.549132 0.024151 10.152579 -42.639757 -52.971116 -54.074668 -42.891370 -47.098705 19.456518 -4.362864 21.386423 -9.582449 1.682833 1.083466 -0.765265 10.100696 -1.186233 -6.021529 -14.228855 -0.977594 -0.000000 -0.000000 -0.000000 -4.538771 -18.798233 4.628159 5.205655 6.402510 1.932020 2.794090 -0.284321 -9.227027 0.000000 -0.000000 0.000000
